<svg width="30" height="30" viewBox="0 0 30 30" fill="none" xmlns="http://www.w3.org/2000/svg">
<path d="M15.0005 15.0005C10.3461 15.0005 6.56424 18.7823 6.56424 23.4368V25.3123H7.49853V23.4368C7.49853 19.289 10.8528 15.9382 15.0005 15.9382C19.1483 15.9382 22.4991 19.289 22.4991 23.4368V25.3123H23.4368V23.4368C23.4368 18.7823 19.655 15.0005 15.0005 15.0005Z" fill="#C3CCC7"/>
<path d="M6.09364 24.8451C6.09364 24.8451 5.64349 24.8384 5.18011 25.0701C4.71674 25.3017 4.21745 25.7817 4.21814 26.7206C4.21883 27.6568 4.71674 28.1361 5.18011 28.3678C5.64349 28.5994 6.09364 28.5927 6.09364 28.5927H23.9074C23.9074 28.5927 24.3576 28.5994 24.8209 28.3678C25.2843 28.1361 25.7818 27.6568 25.7829 26.7206C25.7841 25.7817 25.2843 25.3017 24.8209 25.0701C24.3576 24.8384 23.9074 24.8451 23.9074 24.8451H6.09364ZM6.09364 25.7829H23.9074C23.9074 25.7829 24.159 25.7875 24.3988 25.9075C24.6385 26.0273 24.8461 26.2505 24.8452 26.7206C24.8442 27.188 24.6385 27.4105 24.3988 27.5303C24.159 27.6502 23.9074 27.6584 23.9074 27.6584H6.09364C6.09364 27.6584 5.83858 27.6502 5.59881 27.5303C5.35905 27.4105 5.15635 27.188 5.15589 26.7206C5.15543 26.2505 5.35905 26.0273 5.59881 25.9075C5.83858 25.7876 6.09364 25.7829 6.09364 25.7829ZM15.0005 12.1873C13.374 12.1873 12.529 13.0367 12.1215 13.8517C11.7141 14.6666 11.7201 15.4676 11.7201 15.4676V15.9383H12.6579V15.4676C12.6579 15.4676 12.6633 14.8652 12.9589 14.2738C13.2546 13.6825 13.8164 13.125 15.0005 13.125C16.1846 13.125 16.7465 13.6825 17.0421 14.2738C17.3378 14.8652 17.3432 15.4676 17.3432 15.4676V15.9383H18.2809V15.4676C18.2809 15.4676 18.2869 14.6666 17.8795 13.8517C17.472 13.0367 16.629 12.1873 15.0005 12.1873Z" fill="#C3CCC7"/>
<path d="M15.0005 1.40479C13.9068 1.40479 13.2319 2.02149 12.9416 2.60206C12.6513 3.18262 12.6579 3.75089 12.6579 3.75089V13.1249H13.5956V3.75089C13.5956 3.75089 13.6006 3.37771 13.779 3.02076C13.9575 2.66381 14.2193 2.34253 15.0005 2.34253C15.7818 2.34253 16.0435 2.66381 16.222 3.02076C16.4005 3.37771 16.4054 3.75089 16.4054 3.75089V13.1249H17.3432V3.75089C17.3432 3.75089 17.3497 3.18262 17.0594 2.60206C16.7691 2.02149 16.0943 1.40479 15.0005 1.40479ZM15.0005 16.8309C14.8762 16.8309 14.7569 16.8803 14.669 16.9683C14.581 17.0562 14.5316 17.1755 14.5316 17.2998C14.5316 17.4242 14.581 17.5434 14.669 17.6314C14.7569 17.7193 14.8762 17.7687 15.0005 17.7687C18.1363 17.7687 20.6685 20.3009 20.6685 23.4367C20.6685 23.5611 20.7179 23.6803 20.8059 23.7682C20.8938 23.8562 21.0131 23.9056 21.1374 23.9056C21.2618 23.9056 21.381 23.8562 21.469 23.7682C21.5569 23.6803 21.6063 23.5611 21.6063 23.4367C21.6063 19.7942 18.643 16.8309 15.0005 16.8309Z" fill="#C3CCC7"/>
</svg>
